# xmcd
# Copyright (C) 1995-1998 Ti Kan
#
# Track frame offsets:
#       150
#       71903
#       147182
#       207152
#
# Disc length: 3702 seconds
#
# Revision: 0
# Processed by: cddbd v1.5.2PL0 Copyright (c) Steve Scherf et al.
# Submitted via: CD-Transfer v1.0
#
DISCID=3b0e7404
DTITLE=Friday Night Life - 
DYEAR=11
DGENRE=
TTITLE0=Mixed By Dj Maurice 1
TTITLE1=Mixed By Dj Maurice 2
TTITLE2=Mixed By Dj Maurice 3
TTITLE3=Mixed By Dj Maurice 4
EXTD=
EXTT0=
EXTT1=
EXTT2=
EXTT3=
PLAYORDER=
